<svg version="1.1" id="Layer_1" xmlns="http://www.w3.org/2000/svg" xmlns:xlink="http://www.w3.org/1999/xlink" x="0px" y="0px"
	 width="100%" viewBox="0 0 561 561" enable-background="new 0 0 561 561" xml:space="preserve">
<path fill="#78B0FC" opacity="1.000000" stroke="none" 
	d="
M336.000000,562.000000 
	C224.024826,562.000000 112.549644,562.000000 1.037234,562.000000 
	C1.037234,375.066467 1.037234,188.132904 1.037234,1.099680 
	C187.891861,1.099680 374.783783,1.099680 561.837891,1.099680 
	C561.837891,187.999893 561.837891,374.999939 561.837891,562.000000 
	C486.799530,562.000000 411.649750,562.000000 336.000000,562.000000 
M269.290009,79.577156 
	C278.990540,76.017784 288.923492,75.634071 298.761200,78.433434 
	C320.286285,84.558487 334.053711,102.959282 334.200409,125.577614 
	C334.336609,146.571716 334.234131,167.567383 334.233521,188.562363 
	C334.233154,200.559494 334.135162,212.558136 334.336365,224.551834 
	C334.361877,226.073303 335.959290,228.881165 336.794189,228.868301 
	C343.386566,228.766891 350.218964,229.069946 356.496765,227.419708 
	C365.097778,225.158752 373.682281,223.386307 382.017548,226.416428 
	C389.850616,229.264023 397.659058,229.134201 405.620331,229.143326 
	C415.784515,229.154984 425.952545,228.960144 436.111938,229.178497 
	C446.021667,229.391510 455.673035,230.917252 464.288757,236.411850 
	C480.931061,247.025345 488.962891,262.071411 487.360504,281.840027 
	C487.039490,285.800323 488.468964,287.084229 491.942322,287.919250 
	C502.593384,290.479980 512.002197,295.074677 517.925293,304.952850 
	C518.357117,305.673035 519.324280,306.072174 520.364807,306.866638 
	C521.015625,305.197052 521.502991,303.990845 521.958008,302.772491 
	C525.480164,293.340607 525.552917,283.497528 525.208130,273.655212 
	C524.157654,243.665497 509.889801,221.142014 485.390198,204.790665 
	C470.365326,194.762863 453.359467,191.254120 435.488037,191.286041 
	C416.326050,191.320267 397.162689,191.171890 378.002808,191.374191 
	C373.508514,191.421631 371.938110,190.208527 371.988617,185.490479 
	C372.211639,164.664871 372.364990,143.829559 371.979004,123.008217 
	C371.139008,77.689560 334.490845,40.737808 289.147156,39.097588 
	C247.478195,37.590294 210.173187,66.323586 201.552856,107.096558 
	C200.106705,113.936768 199.534332,121.426804 200.699936,128.250748 
	C202.708466,140.009415 207.250046,151.339706 209.199921,163.103165 
	C212.774521,184.668488 213.589935,206.041580 197.421204,224.043274 
	C194.781769,226.981888 196.164413,229.062607 200.545502,229.108002 
	C210.541977,229.211578 220.540314,229.134476 230.537888,229.134079 
	C237.201172,229.133804 237.223175,229.136337 237.225250,222.618057 
	C237.235077,191.958725 237.371338,161.298553 237.188065,130.640335 
	C237.046982,107.040703 246.204895,89.422379 269.290009,79.577156 
M336.412506,388.202118 
	C332.482758,387.218628 334.363373,390.421051 334.349304,391.521332 
	C334.189423,404.018799 334.504852,416.527222 334.115448,429.014740 
	C333.925720,435.098328 333.202698,441.336609 331.546875,447.171722 
	C326.126556,466.273193 310.231506,479.110016 288.799805,480.570587 
	C269.369171,481.894775 254.443497,473.264252 244.073792,456.707520 
	C238.422485,447.684418 237.315140,437.634705 237.272049,427.421844 
	C237.138428,395.757172 237.109451,364.090729 237.338089,332.427124 
	C237.375290,327.274078 235.793564,326.009552 230.808868,326.037018 
	C197.311707,326.221619 163.808502,326.412140 130.316284,325.948761 
	C111.738014,325.691742 97.820297,316.223145 89.297737,300.064117 
	C80.931198,284.200989 81.419586,267.748657 91.111931,252.472046 
	C95.116646,246.159988 100.970802,241.021347 105.858772,235.490494 
	C98.608131,227.038651 91.115273,218.169464 83.365440,209.530823 
	C82.755272,208.850677 79.895058,209.201675 78.856819,210.037582 
	C53.727554,230.269730 42.453114,256.788422 46.721699,288.538177 
	C52.811516,333.834259 88.207947,363.772644 133.850876,363.970825 
	C153.349625,364.055481 172.849060,363.987854 192.348175,363.987213 
	C199.348541,363.986969 199.352219,363.983978 199.352676,371.205811 
	C199.353867,390.038300 199.321884,408.870819 199.359772,427.703217 
	C199.391312,443.380005 201.282623,458.745087 209.365906,472.541718 
	C225.467575,500.024200 247.733643,517.833069 281.363892,517.198669 
	C285.362335,517.123291 289.372437,517.009766 293.361267,517.217957 
	C301.669495,517.651672 309.482574,515.962830 317.272888,513.071594 
	C351.605927,500.329590 375.606476,462.493134 371.958923,426.155670 
	C371.789795,424.470490 370.408630,422.511230 369.015472,421.406708 
	C356.937134,411.830841 346.327332,400.842163 336.412506,388.202118 
M183.964310,253.331268 
	C183.486023,250.879318 181.784790,247.020386 182.726364,246.201981 
	C189.214005,240.562912 188.095825,234.601059 184.540771,228.239182 
	C182.733398,225.004791 183.303619,222.691681 186.046188,219.997238 
	C193.573395,212.602066 199.124207,203.974808 199.886826,193.053970 
	C201.584641,168.741257 196.583237,145.653900 186.487869,123.654396 
	C182.571793,115.120583 175.943726,109.171516 166.587036,106.754333 
	C160.554840,105.195992 155.006058,103.511040 149.947418,98.935699 
	C142.805649,92.476257 131.218292,95.193222 125.861275,103.162888 
	C120.876495,110.578751 123.377747,121.961868 131.113235,127.064430 
	C138.552292,131.971451 149.213165,129.684738 154.340668,121.795471 
	C156.022629,119.207527 157.731186,118.649124 160.563477,119.447083 
	C167.293472,121.343170 171.785980,125.458214 174.637909,131.848267 
	C182.022507,148.394318 185.174225,165.870316 185.861099,183.782227 
	C186.139420,191.040466 185.341125,198.347809 180.417892,204.605652 
	C170.812454,216.814957 158.515640,223.163071 142.920197,223.090897 
	C135.613586,223.057083 129.057159,220.882050 123.642883,216.037018 
	C108.912170,202.855087 97.554504,187.145691 89.466751,169.116638 
	C86.763145,163.089813 86.208954,156.930252 89.545502,150.835373 
	C91.011398,148.157593 92.462425,146.744675 96.184555,147.432037 
	C105.840912,149.215302 115.074089,141.256516 115.720627,131.277405 
	C116.310188,122.177475 108.349533,113.562859 99.203049,113.402939 
	C89.033417,113.225113 80.432961,121.557884 81.437401,131.414383 
	C81.851967,135.482468 80.593445,138.265884 78.635040,141.481323 
	C72.581902,151.419785 71.020996,161.945801 75.583321,173.008453 
	C83.912567,193.205063 96.478714,210.424088 112.253487,225.408112 
	C121.177483,233.884781 131.999435,238.079025 144.062271,237.432449 
	C150.108368,237.108383 152.873032,238.794754 154.413010,244.261337 
	C155.776016,249.099701 159.210968,253.087631 164.115601,253.074020 
	C168.053940,253.063110 168.880219,254.910355 170.133484,257.420135 
	C181.387039,279.956757 199.554062,293.525391 224.070389,298.655823 
	C237.875153,301.544678 251.597717,299.475433 265.275574,297.344421 
	C280.043182,295.043640 292.787781,298.344543 302.189301,310.704071 
	C304.803009,314.140137 307.284882,317.722717 309.415161,321.472198 
	C318.542358,337.536987 326.796875,354.147827 336.718628,369.698853 
	C350.561432,391.395569 367.723022,410.117249 391.098755,422.161835 
	C413.297302,433.599884 435.091644,433.648376 456.538910,420.103760 
	C469.063812,412.193878 478.535248,401.318817 486.656586,389.217468 
	C497.939148,372.405640 507.966797,354.890625 511.988647,334.733215 
	C515.930664,314.975891 507.555115,301.756805 487.856110,298.205261 
	C474.474670,295.792755 460.706970,295.609009 447.181671,293.882935 
	C434.497040,292.264099 421.884247,290.040131 409.285858,287.821075 
	C406.473724,287.325684 403.853912,285.738831 400.935181,284.570251 
	C405.363342,273.750153 405.947540,263.664429 400.790680,253.559235 
	C393.129425,238.546524 375.000732,231.900314 358.855957,238.396500 
	C343.530792,244.562897 335.110962,262.202240 339.975952,277.949677 
	C345.103485,294.546906 362.249390,306.142242 377.967407,300.420074 
	C388.940338,296.425293 397.565979,297.968109 407.030182,302.194733 
	C407.781311,302.530151 408.618958,302.743958 409.437347,302.845917 
	C425.597626,304.859192 441.768860,306.786346 457.920898,308.863007 
	C468.283478,310.195343 478.839508,310.877289 488.899628,313.450500 
	C497.698059,315.700958 500.420868,321.190338 498.285522,329.997955 
	C491.232361,359.089813 476.844147,384.098633 454.402527,403.996552 
	C446.224731,411.247437 436.243347,415.581299 424.885712,416.063507 
	C409.879974,416.700500 397.290741,410.673126 385.660889,402.149475 
	C363.354736,385.801086 348.524963,363.367645 335.244263,339.675232 
	C328.338745,327.355988 321.788788,314.750366 313.807312,303.148376 
	C307.250824,293.617676 298.246277,286.262146 286.246429,283.717010 
	C275.566162,281.451752 265.030212,282.969330 254.491318,284.592987 
	C223.054947,289.436096 199.267227,279.085876 183.964310,253.331268 
z"/>
<path fill="#FCFEFE" opacity="1.000000" stroke="none" 
	d="
M268.916290,79.693314 
	C246.204895,89.422379 237.046982,107.040703 237.188065,130.640335 
	C237.371338,161.298553 237.235077,191.958725 237.225250,222.618057 
	C237.223175,229.136337 237.201172,229.133804 230.537888,229.134079 
	C220.540314,229.134476 210.541977,229.211578 200.545502,229.108002 
	C196.164413,229.062607 194.781769,226.981888 197.421204,224.043274 
	C213.589935,206.041580 212.774521,184.668488 209.199921,163.103165 
	C207.250046,151.339706 202.708466,140.009415 200.699936,128.250748 
	C199.534332,121.426804 200.106705,113.936768 201.552856,107.096558 
	C210.173187,66.323586 247.478195,37.590294 289.147156,39.097588 
	C334.490845,40.737808 371.139008,77.689560 371.979004,123.008217 
	C372.364990,143.829559 372.211639,164.664871 371.988617,185.490479 
	C371.938110,190.208527 373.508514,191.421631 378.002808,191.374191 
	C397.162689,191.171890 416.326050,191.320267 435.488037,191.286041 
	C453.359467,191.254120 470.365326,194.762863 485.390198,204.790665 
	C509.889801,221.142014 524.157654,243.665497 525.208130,273.655212 
	C525.552917,283.497528 525.480164,293.340607 521.958008,302.772491 
	C521.502991,303.990845 521.015625,305.197052 520.364807,306.866638 
	C519.324280,306.072174 518.357117,305.673035 517.925293,304.952850 
	C512.002197,295.074677 502.593384,290.479980 491.942322,287.919250 
	C488.468964,287.084229 487.039490,285.800323 487.360504,281.840027 
	C488.962891,262.071411 480.931061,247.025345 464.288757,236.411850 
	C455.673035,230.917252 446.021667,229.391510 436.111938,229.178497 
	C425.952545,228.960144 415.784515,229.154984 405.620331,229.143326 
	C397.659058,229.134201 389.850616,229.264023 382.017548,226.416428 
	C373.682281,223.386307 365.097778,225.158752 356.496765,227.419708 
	C350.218964,229.069946 343.386566,228.766891 336.794189,228.868301 
	C335.959290,228.881165 334.361877,226.073303 334.336365,224.551834 
	C334.135162,212.558136 334.233154,200.559494 334.233521,188.562363 
	C334.234131,167.567383 334.336609,146.571716 334.200409,125.577614 
	C334.053711,102.959282 320.286285,84.558487 298.761200,78.433434 
	C288.923492,75.634071 278.990540,76.017784 268.916290,79.693314 
z"/>
<path fill="#FCFEFE" opacity="1.000000" stroke="none" 
	d="
M336.640503,388.454529 
	C346.327332,400.842163 356.937134,411.830841 369.015472,421.406708 
	C370.408630,422.511230 371.789795,424.470490 371.958923,426.155670 
	C375.606476,462.493134 351.605927,500.329590 317.272888,513.071594 
	C309.482574,515.962830 301.669495,517.651672 293.361267,517.217957 
	C289.372437,517.009766 285.362335,517.123291 281.363892,517.198669 
	C247.733643,517.833069 225.467575,500.024200 209.365906,472.541718 
	C201.282623,458.745087 199.391312,443.380005 199.359772,427.703217 
	C199.321884,408.870819 199.353867,390.038300 199.352676,371.205811 
	C199.352219,363.983978 199.348541,363.986969 192.348175,363.987213 
	C172.849060,363.987854 153.349625,364.055481 133.850876,363.970825 
	C88.207947,363.772644 52.811516,333.834259 46.721699,288.538177 
	C42.453114,256.788422 53.727554,230.269730 78.856819,210.037582 
	C79.895058,209.201675 82.755272,208.850677 83.365440,209.530823 
	C91.115273,218.169464 98.608131,227.038651 105.858772,235.490494 
	C100.970802,241.021347 95.116646,246.159988 91.111931,252.472046 
	C81.419586,267.748657 80.931198,284.200989 89.297737,300.064117 
	C97.820297,316.223145 111.738014,325.691742 130.316284,325.948761 
	C163.808502,326.412140 197.311707,326.221619 230.808868,326.037018 
	C235.793564,326.009552 237.375290,327.274078 237.338089,332.427124 
	C237.109451,364.090729 237.138428,395.757172 237.272049,427.421844 
	C237.315140,437.634705 238.422485,447.684418 244.073792,456.707520 
	C254.443497,473.264252 269.369171,481.894775 288.799805,480.570587 
	C310.231506,479.110016 326.126556,466.273193 331.546875,447.171722 
	C333.202698,441.336609 333.925720,435.098328 334.115448,429.014740 
	C334.504852,416.527222 334.189423,404.018799 334.349304,391.521332 
	C334.363373,390.421051 332.482758,387.218628 336.640503,388.454529 
z"/>
<path fill="#F8FCFD" opacity="1.000000" stroke="none" 
	d="
M184.140411,253.661102 
	C199.267227,279.085876 223.054947,289.436096 254.491318,284.592987 
	C265.030212,282.969330 275.566162,281.451752 286.246429,283.717010 
	C298.246277,286.262146 307.250824,293.617676 313.807312,303.148376 
	C321.788788,314.750366 328.338745,327.355988 335.244263,339.675232 
	C348.524963,363.367645 363.354736,385.801086 385.660889,402.149475 
	C397.290741,410.673126 409.879974,416.700500 424.885712,416.063507 
	C436.243347,415.581299 446.224731,411.247437 454.402527,403.996552 
	C476.844147,384.098633 491.232361,359.089813 498.285522,329.997955 
	C500.420868,321.190338 497.698059,315.700958 488.899628,313.450500 
	C478.839508,310.877289 468.283478,310.195343 457.920898,308.863007 
	C441.768860,306.786346 425.597626,304.859192 409.437347,302.845917 
	C408.618958,302.743958 407.781311,302.530151 407.030182,302.194733 
	C397.565979,297.968109 388.940338,296.425293 377.967407,300.420074 
	C362.249390,306.142242 345.103485,294.546906 339.975952,277.949677 
	C335.110962,262.202240 343.530792,244.562897 358.855957,238.396500 
	C375.000732,231.900314 393.129425,238.546524 400.790680,253.559235 
	C405.947540,263.664429 405.363342,273.750153 400.935181,284.570251 
	C403.853912,285.738831 406.473724,287.325684 409.285858,287.821075 
	C421.884247,290.040131 434.497040,292.264099 447.181671,293.882935 
	C460.706970,295.609009 474.474670,295.792755 487.856110,298.205261 
	C507.555115,301.756805 515.930664,314.975891 511.988647,334.733215 
	C507.966797,354.890625 497.939148,372.405640 486.656586,389.217468 
	C478.535248,401.318817 469.063812,412.193878 456.538910,420.103760 
	C435.091644,433.648376 413.297302,433.599884 391.098755,422.161835 
	C367.723022,410.117249 350.561432,391.395569 336.718628,369.698853 
	C326.796875,354.147827 318.542358,337.536987 309.415161,321.472198 
	C307.284882,317.722717 304.803009,314.140137 302.189301,310.704071 
	C292.787781,298.344543 280.043182,295.043640 265.275574,297.344421 
	C251.597717,299.475433 237.875153,301.544678 224.070389,298.655823 
	C199.554062,293.525391 181.387039,279.956757 170.133484,257.420135 
	C168.880219,254.910355 168.053940,253.063110 164.115601,253.074020 
	C159.210968,253.087631 155.776016,249.099701 154.413010,244.261337 
	C152.873032,238.794754 150.108368,237.108383 144.062271,237.432449 
	C131.999435,238.079025 121.177483,233.884781 112.253487,225.408112 
	C96.478714,210.424088 83.912567,193.205063 75.583321,173.008453 
	C71.020996,161.945801 72.581902,151.419785 78.635040,141.481323 
	C80.593445,138.265884 81.851967,135.482468 81.437401,131.414383 
	C80.432961,121.557884 89.033417,113.225113 99.203049,113.402939 
	C108.349533,113.562859 116.310188,122.177475 115.720627,131.277405 
	C115.074089,141.256516 105.840912,149.215302 96.184555,147.432037 
	C92.462425,146.744675 91.011398,148.157593 89.545502,150.835373 
	C86.208954,156.930252 86.763145,163.089813 89.466751,169.116638 
	C97.554504,187.145691 108.912170,202.855087 123.642883,216.037018 
	C129.057159,220.882050 135.613586,223.057083 142.920197,223.090897 
	C158.515640,223.163071 170.812454,216.814957 180.417892,204.605652 
	C185.341125,198.347809 186.139420,191.040466 185.861099,183.782227 
	C185.174225,165.870316 182.022507,148.394318 174.637909,131.848267 
	C171.785980,125.458214 167.293472,121.343170 160.563477,119.447083 
	C157.731186,118.649124 156.022629,119.207527 154.340668,121.795471 
	C149.213165,129.684738 138.552292,131.971451 131.113235,127.064430 
	C123.377747,121.961868 120.876495,110.578751 125.861275,103.162888 
	C131.218292,95.193222 142.805649,92.476257 149.947418,98.935699 
	C155.006058,103.511040 160.554840,105.195992 166.587036,106.754333 
	C175.943726,109.171516 182.571793,115.120583 186.487869,123.654396 
	C196.583237,145.653900 201.584641,168.741257 199.886826,193.053970 
	C199.124207,203.974808 193.573395,212.602066 186.046188,219.997238 
	C183.303619,222.691681 182.733398,225.004791 184.540771,228.239182 
	C188.095825,234.601059 189.214005,240.562912 182.726364,246.201981 
	C181.784790,247.020386 183.486023,250.879318 184.140411,253.661102 
z"/>
</svg>