<svg version="1.1" id="Layer_1" xmlns="http://www.w3.org/2000/svg" xmlns:xlink="http://www.w3.org/1999/xlink" x="0px" y="0px"
	 width="100%" viewBox="0 0 560 560" enable-background="new 0 0 560 560" xml:space="preserve">
<path fill="#000000" opacity="1.000000" stroke="none" 
	d="
M362.584351,403.417236 
	C344.188446,386.235504 330.731598,365.931213 319.544830,343.956390 
	C315.241058,335.502167 310.742493,327.139038 306.078552,318.877930 
	C296.210938,301.399780 281.310272,295.303131 261.788513,299.339691 
	C255.288773,300.683685 248.603989,301.865509 242.003922,301.864960 
	C212.884979,301.862518 189.173264,290.964569 173.227356,265.804626 
	C169.727478,260.282379 167.057770,254.566635 159.758789,252.901871 
	C155.924881,252.027420 154.368881,248.251541 153.086365,244.698410 
	C151.973801,241.616135 150.532532,238.752197 146.496979,239.027039 
	C127.537521,240.318237 113.922935,230.870651 102.102303,217.360031 
	C90.276772,203.843781 79.985695,189.394043 73.449532,172.561066 
	C69.488297,162.359421 70.397102,152.312302 76.016037,142.949631 
	C78.406837,138.965912 79.710854,135.170273 79.652199,130.355820 
	C79.556099,122.467438 86.310265,111.978004 97.265388,112.414436 
	C106.955597,112.800476 111.758270,115.124641 115.587914,123.821114 
	C118.865059,131.262939 117.350777,137.722488 110.884010,144.172562 
	C107.043739,148.002914 102.299965,149.292297 97.154480,148.526489 
	C92.944839,147.899963 90.903435,149.589081 89.945610,153.412918 
	C88.785942,158.042603 88.517235,162.730835 90.310852,167.160019 
	C98.288757,186.860672 110.671249,203.449234 127.109589,216.801727 
	C135.315567,223.467239 145.104446,222.591187 154.821136,220.345474 
	C165.419983,217.895905 173.620605,211.844543 179.830078,203.236938 
	C185.540848,195.320633 185.383667,185.834137 184.427780,176.798370 
	C182.851959,161.902588 179.792084,147.239944 173.842194,133.330261 
	C171.498306,127.850716 167.920258,123.756660 162.321762,121.510674 
	C159.216888,120.265076 156.766693,120.303978 154.592590,123.511215 
	C149.250229,131.392227 141.553207,131.740479 133.149078,129.520096 
	C126.115387,127.661781 120.947037,118.791725 121.676559,110.931023 
	C122.319870,103.999229 126.012894,98.792366 132.215790,95.555222 
	C138.882889,92.075836 145.406845,93.078499 150.851837,97.753166 
	C155.089340,101.391182 159.740387,103.381973 164.979828,104.670181 
	C175.883072,107.350945 183.588181,113.970825 188.231140,124.148712 
	C197.927505,145.404190 202.743790,167.683441 201.866470,191.076019 
	C201.480728,201.362030 196.985474,210.085144 190.097168,217.425278 
	C186.018829,221.771103 184.089020,225.608719 187.562485,231.370361 
	C190.331284,235.963104 189.428940,240.683105 185.243256,244.467148 
	C182.721146,246.747238 182.867767,249.221680 184.465393,252.093399 
	C193.693344,268.680573 207.925247,279.058258 226.039841,283.153900 
	C237.213867,285.680328 249.031296,284.600647 260.295776,282.254059 
	C281.961395,277.740662 299.618774,283.628784 313.860474,300.562012 
	C322.990234,311.417175 328.655579,324.228668 335.229797,336.559967 
	C348.583649,361.607880 364.370758,384.734680 387.654694,401.834320 
	C397.242096,408.875244 407.807739,413.714233 419.686157,414.695343 
	C434.879364,415.950256 447.508240,409.276276 457.876953,399.146790 
	C476.326447,381.123077 488.805817,359.170807 496.280518,334.543335 
	C500.172089,321.721375 495.063171,314.209595 481.629517,312.660156 
	C468.107941,311.100555 454.471161,310.559174 440.932434,309.123352 
	C425.579102,307.495148 410.049622,306.396118 395.818726,299.468628 
	C392.202637,297.708282 388.875122,297.989227 385.322784,299.762115 
	C362.879120,310.963257 338.638977,293.018646 337.263123,271.625458 
	C336.096741,253.489471 347.442596,237.463486 365.420624,234.950974 
	C388.197235,231.767853 402.460022,247.097153 405.371796,263.297821 
	C406.316742,268.555298 405.890625,273.641632 404.048065,278.531372 
	C402.391815,282.926636 403.930023,284.878357 408.143036,286.188507 
	C421.425201,290.319031 435.052887,292.451965 448.874420,292.900970 
	C460.830353,293.289398 472.826813,293.220825 484.535461,295.820343 
	C495.936584,298.351593 506.640961,302.127441 511.976990,314.222656 
	C515.744446,322.762268 514.855469,331.450775 512.516113,339.619904 
	C504.574219,367.353455 490.287628,391.664307 469.601318,411.808258 
	C459.996674,421.161133 448.664825,428.564972 435.018036,430.690125 
	C423.462524,432.489563 411.744019,432.701172 400.566071,428.373627 
	C386.265045,422.836945 373.460602,414.882355 362.584351,403.417236 
M399.989563,258.982208 
	C399.445435,255.770996 395.883026,255.433319 394.459381,253.307648 
	C391.982727,249.609726 386.338318,248.265671 386.491028,242.641769 
	C386.495850,242.464233 385.976196,242.270813 385.699280,242.087524 
	C380.493988,238.642456 363.061432,237.654877 358.331635,241.689697 
	C354.444885,245.005386 349.961456,247.957153 347.037720,252.005615 
	C336.817322,266.157745 340.854950,281.973999 352.128601,292.186768 
	C352.278107,292.322205 352.719788,292.135101 353.029083,292.098053 
	C354.080231,290.401154 350.510345,289.621826 352.233887,287.733765 
	C354.269165,288.195343 355.403229,290.105194 355.806671,291.523651 
	C357.426056,297.217834 362.025208,298.078918 366.657990,298.631439 
	C375.418457,299.676331 383.233093,295.831665 391.268188,293.287079 
	C396.190002,291.728394 400.888031,289.863953 398.409149,283.010040 
	C398.173889,282.359619 398.571960,281.320251 398.966492,280.626709 
	C402.817657,273.856812 401.057709,266.758698 399.989563,258.982208 
M451.541931,305.294495 
	C462.435883,306.541138 473.334381,307.749817 484.221680,309.052032 
	C488.977234,309.620850 494.747284,309.918457 497.526886,313.339661 
	C500.404083,316.880920 502.394867,322.311310 501.638947,327.354034 
	C500.257416,336.569885 497.849091,345.626740 493.633057,353.997894 
	C487.047638,367.073517 480.062927,379.888977 470.846924,391.432526 
	C455.680695,410.429077 437.395691,421.973633 411.952789,418.204742 
	C405.614258,417.265808 405.231445,417.747955 403.815521,424.823425 
	C414.063232,428.730988 424.494049,428.553467 435.058960,426.312561 
	C439.690521,425.330139 444.783234,425.067383 444.995728,417.691162 
	C448.545868,421.941467 451.384277,420.718964 454.686462,418.632812 
	C458.284637,416.359528 456.301361,412.528198 457.685028,409.158386 
	C462.348511,413.511261 465.237396,410.667969 468.586609,407.734894 
	C479.947449,397.785553 486.152954,384.108765 494.592682,372.075104 
	C498.363098,366.699127 500.390442,360.131073 503.593750,354.316040 
	C505.669037,350.548737 507.024414,347.137817 503.373047,343.688049 
	C504.922424,342.192841 507.301086,343.974670 508.196503,341.399261 
	C511.141571,332.928497 511.489532,324.535553 508.152252,316.125000 
	C507.718018,315.030701 506.826813,313.689453 505.739319,313.798767 
	C499.300598,314.445984 497.058258,310.234680 495.293732,305.264893 
	C494.926941,304.231873 493.697113,303.445038 492.911926,304.139465 
	C488.944153,307.648529 487.602448,304.045227 485.580017,301.750000 
	C483.753662,299.677246 481.227753,298.621429 478.522064,298.349152 
	C473.228821,297.816467 467.916260,297.125031 462.611969,297.127350 
	C452.108398,297.131958 441.733307,296.697815 431.318054,294.800720 
	C427.634918,294.129822 422.655914,290.651581 418.918762,295.818237 
	C418.444702,296.473663 416.508698,295.605988 416.414642,294.854797 
	C415.920349,290.908417 412.438019,291.429932 410.076447,290.522034 
	C408.479706,289.908234 406.267670,289.497986 405.196167,291.619629 
	C404.218170,293.556061 403.618744,295.651001 405.065369,297.763763 
	C406.730530,300.195709 408.677521,298.787323 410.464172,297.912567 
	C411.381561,299.909943 411.979248,301.554535 414.278442,301.833679 
	C418.393585,302.333313 422.483978,303.071106 426.562836,303.827515 
	C434.578186,305.313904 442.651215,305.504456 451.541931,305.294495 
M81.179832,141.631561 
	C73.677765,153.339966 73.407471,165.399124 79.630478,177.658463 
	C83.498306,185.278122 87.025276,193.152283 93.442459,199.613510 
	C97.696205,191.030853 99.464821,202.353439 103.422371,199.938812 
	C100.646729,195.338745 97.885475,190.762512 94.683365,185.455658 
	C93.724007,191.509430 93.724007,191.509430 92.000092,193.612839 
	C91.533066,191.226364 91.654320,188.658325 90.537148,186.859421 
	C88.709145,183.915909 92.879318,182.020081 91.237526,179.375351 
	C89.735130,176.955170 85.739983,179.056641 84.740639,175.874222 
	C85.346596,173.836151 87.790344,175.540970 88.804237,172.819656 
	C83.604187,165.903366 86.098244,157.234344 86.410561,148.541977 
	C89.038651,149.122665 89.850014,145.075043 92.613396,145.031754 
	C95.406471,144.988022 98.179848,145.451492 101.019684,145.045059 
	C107.196609,144.161026 112.671944,138.487839 113.058876,132.284317 
	C113.589027,123.784576 106.667603,115.501556 98.856911,115.288536 
	C90.151688,115.051117 82.673904,123.198647 83.591209,132.628571 
	C83.910866,135.914703 83.376221,138.476471 81.179832,141.631561 
M164.859192,221.581650 
	C155.420380,225.129318 145.421768,225.401993 135.130478,226.406677 
	C136.209885,228.950104 135.391357,231.032776 133.794693,233.147202 
	C137.941772,234.624359 141.494522,235.472885 144.830200,232.381561 
	C148.689682,228.804825 157.788498,230.985138 158.514282,236.129959 
	C159.153214,240.659042 162.528473,243.797699 163.125900,248.138306 
	C163.298447,249.392044 164.072906,250.507187 165.421005,250.326492 
	C168.739166,249.881729 169.595932,252.361923 170.890991,254.480881 
	C172.536423,257.173126 173.751526,260.895660 176.181656,262.104614 
	C178.221100,263.119232 179.275803,263.982391 179.526657,266.891541 
	C180.795441,264.655792 181.463913,263.324707 182.275101,262.087158 
	C183.289673,260.539368 184.641663,259.046692 183.018082,257.187012 
	C181.081955,254.969315 179.924942,257.977325 177.950867,258.062012 
	C180.135727,253.932816 179.475800,249.714096 179.293060,245.474396 
	C178.991470,238.476669 180.562775,231.541992 179.805954,224.467667 
	C179.158768,218.418243 175.765228,216.108597 170.505875,218.888077 
	C168.891266,219.741379 167.166992,220.387192 164.859192,221.581650 
M311.506653,311.384003 
	C312.564606,311.110565 313.751556,312.415497 314.728821,311.142853 
	C314.032318,305.594055 311.597015,303.335632 306.346802,303.427002 
	C307.849579,300.118805 305.922272,297.837860 303.616730,296.249023 
	C301.188324,294.575470 299.056274,292.619080 296.773621,290.813080 
	C290.139679,285.564362 285.917786,285.529205 281.910126,290.354858 
	C278.204224,288.538147 273.704437,289.605682 269.936768,286.689972 
	C268.287628,285.413757 263.348511,285.031677 263.326630,288.221252 
	C263.277985,295.317413 259.114838,292.071228 256.469543,292.631500 
	C255.277588,290.765625 257.481964,289.655182 256.052246,288.132111 
	C243.021423,287.734222 229.693283,285.325867 215.836121,289.765472 
	C218.441727,293.050079 220.751053,294.947388 223.831238,296.042938 
	C232.619461,299.168823 241.614914,298.341278 250.514374,297.205658 
	C260.177673,295.972504 269.516937,292.075317 279.550232,293.985931 
	C283.390503,294.717194 287.345032,295.569000 290.394653,291.297272 
	C291.986572,293.970520 290.211884,296.999603 292.741730,298.675262 
	C297.945129,302.121826 301.719177,307.086060 305.943970,311.544250 
	C307.916565,313.625824 309.278351,312.993927 311.506653,311.384003 
M156.926163,113.062302 
	C159.543121,113.577202 160.049561,111.799850 160.321259,109.865891 
	C160.597061,107.902649 159.126038,107.330139 157.690613,106.779213 
	C155.033783,105.759491 152.282745,104.730721 150.379486,102.590126 
	C143.914154,95.318649 136.360229,96.305557 129.204758,103.489166 
	C125.216019,107.493599 124.084282,112.980545 126.282776,118.170052 
	C128.241928,122.794571 134.600235,127.109306 139.330307,126.860413 
	C141.303558,126.756584 143.666672,126.660118 144.572632,124.615280 
	C145.750198,121.957420 148.040558,121.084969 150.342316,120.282761 
	C152.717392,119.455009 154.368942,118.148918 155.076523,116.080177 
	C154.496735,113.660378 151.727036,113.835037 150.755356,111.813332 
	C153.003769,111.246719 154.531433,112.567009 156.926163,113.062302 
M320.914429,321.920929 
	C321.541992,318.857178 320.728821,316.522003 317.758423,315.101685 
	C320.200012,319.143341 319.942566,322.635162 316.586426,325.862366 
	C314.924866,327.460083 316.394501,328.789215 316.923340,330.321289 
	C319.515564,337.831482 327.382416,340.850433 331.254517,347.302368 
	C332.066681,348.655670 334.674500,348.917450 334.197357,351.306396 
	C334.096710,351.810242 333.369171,352.499969 332.865570,352.560028 
	C330.244110,352.872681 330.580231,350.159149 329.375641,348.991028 
	C329.180054,348.801392 328.776459,348.826202 327.482208,348.513367 
	C329.971832,356.780975 334.366089,363.122803 339.877319,368.858154 
	C339.837616,365.729370 340.899170,362.438538 337.433502,360.308167 
	C335.766357,359.283417 335.785950,357.392761 336.924988,355.894196 
	C340.336182,351.406250 337.799652,348.419098 334.247070,346.090210 
	C332.417084,344.890625 332.364624,343.838776 332.144104,341.832367 
	C331.602692,336.906219 329.277405,332.524109 326.221252,328.925446 
	C323.459198,329.095367 322.476135,332.047394 319.942413,331.483124 
	C317.602722,328.236206 319.313263,325.437469 320.914429,321.920929 
M196.665710,193.508728 
	C198.355576,184.809921 198.579666,176.020584 196.490585,167.455002 
	C195.597275,163.792328 192.120941,161.454758 188.349579,160.048691 
	C187.240524,167.206238 188.795074,173.653748 188.397964,180.155319 
	C188.050354,185.846146 186.357712,192.484909 195.256088,193.558212 
	C195.570572,193.596130 195.872177,193.740601 196.665710,193.508728 
M194.100754,159.008972 
	C195.708359,156.324081 192.947052,154.463409 192.781509,152.045486 
	C192.291611,144.889511 189.376633,138.318314 187.252518,131.571777 
	C186.189774,128.196350 184.543350,125.022682 181.235092,121.805168 
	C180.301270,125.795731 176.567642,128.335953 177.769577,131.875610 
	C181.192291,141.955292 183.211288,152.998947 194.100754,159.008972 
M390.103607,410.885651 
	C391.199097,413.734650 387.928833,414.168610 387.140411,415.983002 
	C390.017822,417.383148 394.470428,415.718109 394.265228,413.182892 
	C394.100220,411.144470 393.291473,408.523865 390.103607,410.885651 
M99.411957,208.356140 
	C101.819252,209.938339 102.589317,207.288055 105.678658,206.662521 
	C101.622520,204.791824 99.387253,202.469223 95.796196,202.747208 
	C96.051353,205.295624 98.017540,206.287582 99.411957,208.356140 
z"/>
<path fill="#000000" opacity="1.000000" stroke="none" 
	d="
M327.759247,104.244499 
	C319.192627,86.207916 298.455505,74.206673 276.750671,78.795197 
	C252.561050,83.909027 239.183075,103.337318 239.049332,123.750374 
	C238.836411,156.245850 238.973877,188.743668 238.974991,221.240494 
	C238.975296,230.530029 238.649033,230.935974 229.521194,230.862915 
	C220.037186,230.787003 210.553085,230.637466 201.071472,230.414978 
	C198.691437,230.359116 195.652328,231.173965 194.549301,228.100067 
	C193.580154,225.399292 195.618103,223.288513 197.185318,221.454300 
	C202.680008,215.023483 207.858932,208.072128 208.506088,199.611359 
	C209.518539,186.374542 210.294464,172.998230 207.576996,159.788010 
	C205.431519,149.358307 202.928238,139.054474 199.139862,129.041046 
	C196.168625,121.187401 198.649277,113.130226 200.408875,105.473022 
	C206.744019,77.904579 223.143250,57.765968 248.513458,45.812420 
	C289.193451,26.645445 340.970825,42.019325 362.791565,83.023949 
	C370.415802,97.350990 373.877960,112.522583 373.910461,128.602234 
	C373.946503,146.433838 373.905396,164.265579 373.910309,182.097260 
	C373.912506,189.983063 373.927917,189.869431 382.017303,189.975250 
	C403.507050,190.256378 425.029266,189.017136 446.482758,190.635193 
	C470.663239,192.458923 490.725708,202.747192 506.636841,221.193741 
	C516.595093,232.738785 522.927734,246.154526 525.650085,260.861664 
	C528.324402,275.309082 528.110413,290.030121 523.466431,304.293610 
	C522.041687,308.669495 519.197998,309.477234 516.794983,305.630768 
	C510.717804,295.902863 501.485291,291.773132 491.027924,289.176819 
	C486.821625,288.132507 485.951294,284.711700 486.120422,280.960663 
	C486.493530,272.687103 485.563690,264.760925 481.664032,257.220215 
	C474.343597,243.064819 463.040100,234.775162 447.330780,231.831314 
	C434.715393,229.467239 422.110840,230.446411 409.502563,230.811157 
	C399.948608,231.087540 390.493347,231.087189 381.392029,227.818115 
	C372.987061,224.799149 364.857971,226.821442 356.964478,229.329926 
	C350.002136,231.542465 343.129486,230.644440 336.178345,230.464783 
	C334.037170,230.409454 333.316620,228.968842 333.221588,227.145966 
	C333.091583,224.652557 333.057190,222.151505 333.065186,219.653992 
	C333.165558,188.326965 333.423370,156.999390 333.286865,125.673500 
	C333.254974,118.360413 331.394287,111.183380 327.759247,104.244499 
M463.003387,231.005859 
	C463.003387,231.005859 462.971558,230.980301 463.411926,231.498032 
	C465.379059,233.454620 467.871857,233.191132 470.370514,233.474411 
	C473.233673,233.798965 476.873169,234.277893 474.874329,238.972595 
	C474.015930,240.988770 475.629852,242.049149 476.747833,243.189651 
	C477.773834,244.236252 479.418701,244.862701 480.065857,246.064651 
	C485.276886,255.742798 490.564819,265.443665 490.221436,276.944397 
	C490.121155,280.303772 491.650452,282.362152 494.349915,284.316284 
	C502.480835,290.202271 513.271790,292.050049 519.041870,301.208282 
	C521.118591,299.685822 521.206299,297.719360 521.740662,296.025604 
	C524.187805,288.269348 524.190369,280.250000 523.791382,272.266205 
	C522.677185,249.971039 512.343445,232.048370 496.990448,216.554047 
	C495.249573,214.797134 493.247406,215.043076 490.902435,215.704025 
	C491.702026,213.089447 491.218201,211.571838 489.312103,210.112717 
	C475.933411,199.871307 460.919403,194.251434 444.046295,194.113571 
	C421.218445,193.926987 398.388489,193.921509 375.559814,193.981049 
	C371.252930,193.992279 369.660828,192.326782 369.700226,188.035400 
	C369.889771,167.373703 369.484772,146.698898 370.068634,126.050720 
	C370.613159,106.793854 363.578033,90.371353 353.106110,74.952400 
	C352.242950,73.681480 351.487518,71.976814 349.337952,72.180717 
	C345.407257,72.553574 339.550293,67.653152 340.145508,63.661961 
	C340.524811,61.118137 339.363617,60.308182 338.091705,59.230377 
	C317.649628,41.907623 293.344879,39.588394 268.346191,42.865421 
	C251.537949,45.068775 237.755783,54.786312 225.955063,66.571358 
	C214.566193,77.945114 206.940033,91.819771 203.614777,107.671936 
	C202.051926,115.122299 200.634460,122.869339 203.422455,130.375137 
	C208.146866,143.094284 211.360886,156.227097 212.499680,169.654175 
	C213.820969,185.232681 214.586609,200.976990 207.360947,215.735107 
	C205.921646,218.674850 204.958984,221.847931 203.608414,225.349243 
	C212.388657,227.177979 220.749176,226.756622 229.203857,226.180786 
	C234.072449,225.849197 235.566147,223.453278 235.743652,219.273819 
	C235.814316,217.609818 235.813293,215.942047 235.815842,214.275955 
	C235.864212,182.614197 235.865097,150.952271 235.990982,119.290840 
	C236.015015,113.246132 237.391205,107.055801 240.242981,102.036278 
	C245.582382,92.638145 251.783356,83.982475 262.855438,79.552551 
	C276.286591,74.178741 289.480621,72.465668 303.137695,77.399635 
	C307.312775,78.907990 310.882111,82.493660 315.098114,83.388962 
	C320.631958,84.564102 322.906525,88.696182 325.388824,92.415085 
	C333.758484,104.954353 337.193695,118.969437 337.044464,134.056290 
	C336.815369,157.217712 336.946838,180.382904 336.962524,203.546463 
	C336.966583,209.544495 337.074524,215.543213 337.206787,221.540024 
	C337.252869,223.629654 337.650360,225.743286 340.355103,225.795425 
	C344.831360,225.881699 349.423889,226.727814 353.754669,225.267456 
	C362.161621,222.432648 370.643097,222.143570 379.372894,223.214340 
	C387.904572,224.260803 395.990234,227.622910 404.925323,226.832947 
	C418.351501,225.645889 431.787720,226.129929 445.301849,227.140305 
	C451.669647,227.616379 457.726227,226.711197 463.003387,231.005859 
z"/>
<path fill="#000000" opacity="1.000000" stroke="none" 
	d="
M352.807068,489.773621 
	C339.081879,505.230804 322.662659,516.125366 302.442963,518.667664 
	C265.048706,523.369507 232.983505,515.197266 209.164139,475.627472 
	C200.679886,461.533051 197.644669,446.007874 197.609314,429.767975 
	C197.575577,414.269501 197.603912,398.770844 197.631256,383.272339 
	C197.637421,379.777832 197.727051,376.305389 198.387711,372.828217 
	C199.447693,367.249268 198.483932,365.771576 192.694565,365.611115 
	C178.375854,365.214294 164.036194,364.854614 149.726074,365.734772 
	C124.131866,367.308990 99.785469,364.110901 78.828682,347.699310 
	C66.007614,337.658936 56.400925,325.312378 50.290920,309.956482 
	C45.083641,296.869354 43.644913,283.406067 44.691917,269.791412 
	C46.597775,245.008789 57.932892,224.852356 77.099648,209.048523 
	C80.430138,206.302399 83.391106,206.855713 85.702126,209.982407 
	C91.569115,217.920197 98.252174,225.064957 105.396034,231.852524 
	C108.406853,234.713181 107.685806,237.786041 103.286858,240.913925 
	C92.975021,248.246170 87.880379,258.615784 85.652122,270.629547 
	C81.242195,294.405945 98.696198,319.388184 122.499756,323.821503 
	C127.457458,324.744843 132.393738,324.978882 137.391495,324.974823 
	C167.721985,324.950287 198.052460,324.936951 228.382950,324.948975 
	C238.324142,324.952911 238.964325,325.637299 238.963242,335.329315 
	C238.959763,366.826416 238.950394,398.323578 238.979782,429.820648 
	C239.003418,455.176758 252.380478,472.847351 277.003357,478.618103 
	C295.579865,482.971802 319.113007,472.444916 327.608582,453.915039 
	C331.529724,445.362549 333.419281,436.342407 333.121307,426.873810 
	C332.738953,414.721832 333.719055,402.548157 332.578735,390.404846 
	C332.411743,388.626282 332.796692,386.921204 334.602875,386.238251 
	C336.602722,385.482178 337.677002,387.188110 338.639465,388.456116 
	C345.412659,397.379089 353.269867,405.280914 361.429291,412.905884 
	C361.916229,413.360962 362.307037,414.003693 362.877594,414.272003 
	C376.172302,420.523285 374.694153,432.248810 373.171509,443.471039 
	C370.843933,460.626038 364.307770,476.153656 352.807068,489.773621 
M202.082062,373.520477 
	C200.838776,391.993561 201.471710,410.492432 201.309402,428.980591 
	C201.108521,451.860992 207.427017,472.420624 223.352020,489.321472 
	C234.971069,501.652557 248.412140,511.438324 265.496521,514.496277 
	C276.690521,516.499878 288.105530,514.636047 299.415588,514.969604 
	C303.652710,515.094604 307.668457,514.199646 311.647888,512.869873 
	C329.206207,507.002716 343.584717,496.454559 354.422028,481.706970 
	C365.243347,466.981079 370.669708,450.152161 369.891754,431.608917 
	C369.602325,424.710602 368.943787,423.956360 362.189697,424.135620 
	C363.653564,419.784973 361.167053,418.282654 357.512451,417.218903 
	C352.650208,415.803650 348.461487,413.111298 344.808411,409.540833 
	C341.368774,406.178986 338.211121,402.765442 338.794647,397.145233 
	C336.023010,417.927094 338.524231,438.960266 331.280121,459.541382 
	C329.603241,460.199097 329.613495,460.206268 327.968842,462.553711 
	C321.869720,471.259003 313.359467,476.829224 303.501312,480.056122 
	C285.517944,485.942749 268.708099,483.456268 253.506042,471.751343 
	C250.811630,469.676849 248.175064,467.440643 245.437225,465.466919 
	C243.513931,464.080444 242.916443,459.393066 241.432068,456.265747 
	C238.058624,449.158508 235.694885,441.845703 235.763306,433.751282 
	C235.968964,409.423126 235.908600,385.092285 235.865387,360.762634 
	C235.849426,351.769135 235.524521,342.776337 235.484497,333.782562 
	C235.471695,330.904480 234.470718,329.603088 231.474976,329.334625 
	C225.175674,328.770111 218.910797,328.070831 212.556091,328.098297 
	C185.560883,328.214966 158.561737,327.927765 131.570679,328.286407 
	C118.241066,328.463501 107.422623,322.944183 97.435806,315.157501 
	C95.185661,313.403076 93.374214,312.037537 90.464348,312.430786 
	C89.571510,312.551483 88.447983,312.180603 88.209915,310.884644 
	C88.526382,309.248535 91.414383,310.508362 91.188698,308.267487 
	C74.931320,281.147614 80.042534,256.969910 101.615692,235.669983 
	C96.638245,229.289963 90.679893,225.004456 86.595062,218.401321 
	C81.674057,210.446533 81.520927,210.667053 74.741684,216.672546 
	C68.851425,221.890518 64.027534,228.048325 59.886856,234.667099 
	C48.884727,252.253662 46.215935,271.491730 49.025620,291.769073 
	C54.144089,328.708710 84.781738,357.294617 120.393776,361.088165 
	C145.169113,363.727325 170.313950,362.244141 195.280441,361.125214 
	C199.559418,360.933441 201.559265,362.727600 202.079880,366.574585 
	C202.345306,368.535767 202.106537,370.565216 202.082062,373.520477 
z"/>
<path fill="#000000" opacity="1.000000" stroke="none" 
	d="
M347.628540,274.726318 
	C348.763336,271.088928 349.934784,267.803680 351.350891,263.832336 
	C355.564453,267.207428 353.956573,270.941284 353.384369,274.398041 
	C353.133698,275.912476 353.491486,278.139038 351.338287,278.407440 
	C349.210388,278.672699 348.266357,276.892242 347.628540,274.726318 
z"/>
<path fill="#000000" opacity="1.000000" stroke="none" 
	d="
M184.255280,138.940948 
	C186.018494,140.214142 188.011932,140.961838 188.322571,143.276627 
	C184.328751,144.783127 183.881836,141.902267 183.295013,139.218460 
	C183.271576,139.111252 183.430069,138.904800 183.553543,138.841385 
	C183.681137,138.775818 183.869476,138.828491 184.255280,138.940948 
z"/>
<path fill="#000000" opacity="1.000000" stroke="none" 
	d="
M463.018555,231.019791 
	C462.645782,229.654739 462.257874,228.275757 461.855865,226.846619 
	C463.043335,225.167313 464.392609,225.175323 465.991943,226.469818 
	C466.145386,228.428436 465.105255,229.725693 463.272888,230.870483 
	C462.971558,230.980301 463.003387,231.005859 463.018555,231.019791 
z"/>
</svg>